<svg width="100%" height="100%" viewBox="0 0 28 28" fill="none" xmlns="http://www.w3.org/2000/svg" class="" color=""><circle cx="14" cy="14" r="14"></circle><path d="M7.73061 9.72815L7.18883 9.20953L7.73061 9.72815C8.32872 9.10335 9.15611 8.75 10.021 8.75C10.8659 8.75 11.6759 9.0872 12.2711 9.68677L13.3968 10.8206C13.7292 11.1554 14.2708 11.1554 14.6032 10.8206L14.071 10.2922L14.6032 10.8206L15.7289 9.68677C16.3241 9.0872 17.1341 8.75 17.979 8.75C18.8439 8.75 19.6713 9.10335 20.2694 9.72815L20.3211 9.78218L20.8629 9.26355L20.3211 9.78218C20.9172 10.4049 21.25 11.2337 21.25 12.0958V12.2215C21.25 13.1216 20.9182 13.9901 20.3181 14.6609L16.1967 19.2677C15.6376 19.8928 14.8386 20.25 14 20.25C13.1614 20.25 12.3624 19.8928 11.8033 19.2677L7.68193 14.6609C7.0818 13.9901 6.75 13.1216 6.75 12.2215V12.0958C6.75 11.2337 7.08276 10.4049 7.67889 9.78218L7.73061 9.72815Z" stroke="black" fill=""></path></svg>