<svg width="12" height="11" viewBox="0 0 12 11" fill="none" xmlns="http://www.w3.org/2000/svg">
<path d="M6.95441 1.64591C6.64734 1.03176 6.49381 0.724691 6.28604 0.626152C6.10524 0.540401 5.89548 0.540401 5.71468 0.626152C5.50691 0.72469 5.35337 1.03176 5.0463 1.6459L4.38973 2.95905C4.29492 3.14868 4.24751 3.24349 4.17815 3.31608C4.11676 3.38034 4.04314 3.43167 3.96162 3.46706C3.86953 3.50705 3.76417 3.51875 3.55347 3.54217L2.18563 3.69415C1.44955 3.77593 1.08152 3.81683 0.915191 3.98652C0.77065 4.13399 0.702603 4.34011 0.730937 4.54465C0.763542 4.78002 1.0349 5.03199 1.57761 5.53594L2.62566 6.50913C2.81092 6.68115 2.90354 6.76716 2.95707 6.87139C3.00439 6.96352 3.02959 7.0654 3.03067 7.16896C3.03191 7.28612 2.99006 7.4054 2.90636 7.64394L2.43306 8.99284C2.1604 9.76991 2.02407 10.1585 2.1146 10.389C2.19313 10.5891 2.36326 10.739 2.57157 10.7917C2.81172 10.8525 3.18001 10.6683 3.91659 10.3001L5.52333 9.49669C5.69824 9.40923 5.7857 9.36551 5.87743 9.34829C5.95867 9.33305 6.04204 9.33305 6.12329 9.34829C6.21502 9.36551 6.30248 9.40923 6.47739 9.49669L8.08412 10.3001C8.8207 10.6683 9.18899 10.8525 9.42915 10.7917C9.63746 10.739 9.80758 10.5891 9.88611 10.389C9.97664 10.1584 9.84031 9.76991 9.56765 8.99284L9.09436 7.64394C9.01066 7.4054 8.96881 7.28612 8.97004 7.16896C8.97113 7.0654 8.99633 6.96352 9.04364 6.87139C9.09717 6.76716 9.1898 6.68115 9.37505 6.50913L10.4231 5.53594C10.9658 5.03199 11.2372 4.78002 11.2698 4.54465C11.2981 4.34011 11.2301 4.13399 11.0855 3.98652C10.9192 3.81683 10.5512 3.77593 9.81508 3.69415L8.44725 3.54217C8.23654 3.51875 8.13118 3.50705 8.03909 3.46706C7.95757 3.43167 7.88395 3.38034 7.82256 3.31608C7.7532 3.24349 7.7058 3.14867 7.61099 2.95905L6.95441 1.64591Z" fill="white"/>
</svg>
