<svg id="a0f8dbbc-4301-4b20-8d5b-02dcbbdc7003" data-name="Layer 1" xmlns="http://www.w3.org/2000/svg" width="24" height="24" viewBox="0 0 24 24" fill="currentColor">
  <title>Favorites</title>
  <path d="M12,22.75a.72.72,0,0,1-.42-.13c-.32-.21-7.79-5.27-10.24-9.76C-.12,10.18-.45,6.4,2.09,4a6.48,6.48,0,0,1,8.82,0L12,5l1.08-1a6.48,6.48,0,0,1,8.82,0c2.54,2.41,2.21,6.19.75,8.87-2.45,4.49-9.9,9.55-10.22,9.76A.72.72,0,0,1,12,22.75Zm-5.5-19A4.89,4.89,0,0,0,3.13,5.07c-2,1.87-1.66,4.9-.47,7.07,2,3.59,7.73,7.82,9.34,9,1.6-1.14,7.36-5.36,9.32-8.95,1.28-2.34,1.54-5.68-1-7.49A5.07,5.07,0,0,0,14,5.22l-.88.84,1.45,1.4-.35.36a1,1,0,0,1-1.41,0L9.87,5.07A4.89,4.89,0,0,0,6.5,3.75Z" fill="currentColor"/>
</svg>
