<svg width="120" height="17" viewBox="0 0 120 17" fill="none" xmlns="http://www.w3.org/2000/svg">
<path d="M25.416 0.458984H28.6422V16.6237H25.416V0.458984Z" fill="#140F0F"/>
<path d="M41.0598 16.6237H37.8336V15.0484C37.1265 16.0899 35.8444 16.7994 34.298 16.7994C31.779 16.7994 30.0767 15.1594 30.0767 12.631V5.11472H33.3254V11.7889C33.3254 13.0537 34.0992 13.9173 35.3146 13.9173C36.9492 13.9173 37.8336 12.5652 37.8336 10.1705V5.11472H41.0598V16.6237Z" fill="#140F0F"/>
<path d="M42.7104 0.458984H45.9366V16.6237H42.7104V0.458984Z" fill="#140F0F"/>
<path d="M58.4909 16.6237H55.2648V15.0484C54.5577 16.0899 53.2756 16.7994 51.7291 16.7994C49.2101 16.7994 47.5078 15.1594 47.5078 12.631V5.11472H50.7565V11.7889C50.7565 13.0537 51.5303 13.9173 52.7458 13.9173C54.3803 13.9173 55.2648 12.5652 55.2648 10.1705V5.11472H58.4909V16.6237Z" fill="#140F0F"/>
<path d="M60.0171 0.458984H63.2432V16.6237H60.0171V0.458984Z" fill="#140F0F"/>
<path d="M69.9652 4.9368C73.9854 4.9368 75.7329 7.97413 75.7329 10.6375C75.7329 11.169 75.6877 11.7221 75.6877 11.7221H67.532C67.7986 13.2521 68.7927 14.0964 70.2747 14.0964C71.3794 14.0964 72.1973 13.6079 72.439 12.7885H75.6652C75.3105 15.3159 73.1461 16.8005 70.1617 16.8005C66.2522 16.8005 64.3296 13.7417 64.3296 10.8596C64.3296 8.0002 66.0534 4.93793 69.9652 4.93793V4.9368ZM72.2402 9.39306C72.151 8.1974 71.3557 7.35306 69.9652 7.35306C68.7475 7.35306 67.9082 8.06253 67.5987 9.39306H72.2402Z" fill="#140F0F"/>
<path d="M76.8774 5.11473H80.1036V6.7116C80.7655 5.64626 81.8488 4.9368 83.3523 4.9368C85.1642 4.9368 86.2916 5.67006 86.8665 7.0006C87.463 5.91373 88.832 4.9368 90.6902 4.9368C93.1855 4.9368 94.8234 6.579 94.8234 8.79693V16.6237H91.5724V9.75006C91.5724 8.46373 90.8653 7.66473 89.6736 7.66473C88.2593 7.66473 87.463 8.86266 87.463 10.7485V16.6237H84.2368V9.75006C84.2368 8.46373 83.5297 7.66473 82.3571 7.66473C80.9214 7.66473 80.1036 8.8842 80.1036 10.7485V16.6237H76.8774V5.11473Z" fill="#140F0F"/>
<path d="M95.9067 10.8585C95.9067 7.46526 98.3828 4.9368 101.852 4.9368C105.299 4.9368 107.818 7.4426 107.818 10.8585C107.818 14.2959 105.299 16.7994 101.852 16.7994C98.3828 16.7994 95.9067 14.2743 95.9067 10.8585ZM104.527 10.8585C104.527 8.99413 103.422 7.71006 101.852 7.71006C100.217 7.71006 99.1792 9.01793 99.1792 10.8585C99.1792 12.7205 100.217 14.0284 101.852 14.0284C103.443 14.0284 104.527 12.7205 104.527 10.8585Z" fill="#140F0F"/>
<path d="M109.016 5.11473H112.242V6.69006C112.949 5.64626 114.231 4.9368 115.777 4.9368C118.296 4.9368 119.999 6.579 119.999 9.10746V16.6237H116.75V9.94953C116.75 8.68473 115.976 7.82113 114.761 7.82113C113.126 7.82113 112.242 9.1732 112.242 11.5679V16.6237H109.016V5.11473Z" fill="#140F0F"/>
<path d="M8.5 0C3.80573 0 0 3.80573 0 8.5C0 13.1943 3.80573 17 8.5 17C13.1943 17 17 13.1943 17 8.5C17 3.80573 13.1943 0 8.5 0ZM11.8241 13.9774C10.2793 13.9774 9.02813 12.7217 9.02813 11.1724C9.02813 10.6205 9.22873 10.1309 9.418 9.62313C9.55287 9.26387 9.6866 8.90573 9.8192 8.5442C10.1331 7.6942 10.4335 6.82493 10.5729 5.92847C10.6839 5.2156 10.6692 4.3486 10.1286 3.80347C9.71493 3.38527 9.07573 3.29347 8.50227 3.28893C7.9288 3.2912 7.28847 3.38527 6.87593 3.80347C6.33533 4.3486 6.324 5.2156 6.43167 5.92847C6.57107 6.82607 6.8714 7.69647 7.18533 8.5442C7.31793 8.90573 7.45167 9.26387 7.58653 9.62313C7.7758 10.1309 7.9764 10.6193 7.9764 11.1724C7.9764 12.7217 6.7252 13.9774 5.18047 13.9774C4.00407 13.9774 2.9988 13.2475 2.58513 12.2162C2.9104 12.5143 3.34333 12.6979 3.8182 12.6979C4.3758 12.6979 4.91187 12.4383 5.2564 11.9986C5.64853 11.5033 5.73127 10.8256 5.56353 10.2227C5.37993 9.5642 4.98327 9.0304 4.66367 8.4184C3.62667 6.64813 3.66973 5.32327 3.66973 5.32327C3.66973 5.24053 3.672 5.1578 3.67653 5.07733C3.68333 4.96853 3.6958 4.85973 3.71167 4.75207C3.72867 4.65007 3.74907 4.5492 3.77513 4.44947C3.8012 4.3554 3.8318 4.26247 3.86693 4.17067C3.90207 4.0834 3.9406 3.9984 3.9848 3.9134C4.02787 3.83293 4.07433 3.75473 4.12647 3.67993C4.1786 3.60513 4.23527 3.53373 4.2942 3.4646C4.35313 3.39547 4.4166 3.332 4.48573 3.2708C4.55487 3.2096 4.62513 3.15067 4.6988 3.09627C4.77473 3.0396 4.8518 2.98973 4.93227 2.93987C5.015 2.89 5.1 2.8458 5.18727 2.80273C5.2768 2.7574 5.3686 2.71773 5.46153 2.6826C5.55787 2.6452 5.65533 2.60893 5.75393 2.57833C5.85593 2.54547 5.95907 2.51487 6.06333 2.4888C6.17213 2.46047 6.28093 2.43667 6.3886 2.41287C6.50193 2.38907 6.61527 2.3698 6.7286 2.35167C6.84647 2.3324 6.96433 2.3188 7.0822 2.30407C7.2046 2.29047 7.32813 2.278 7.45053 2.26893C7.5786 2.25987 7.70327 2.25193 7.8302 2.24513C7.96053 2.23833 8.092 2.23607 8.22233 2.2338C8.37873 2.23153 8.534 2.23153 8.6904 2.23153C8.823 2.2338 8.9522 2.23607 9.0848 2.2406C9.21287 2.24513 9.3398 2.25193 9.46787 2.26213C9.59027 2.2712 9.71607 2.2814 9.83847 2.295C9.9586 2.30633 10.0765 2.32107 10.1955 2.34033C10.3111 2.35733 10.4244 2.37547 10.54 2.397C10.6511 2.41853 10.7599 2.44233 10.8687 2.4684C10.9729 2.49447 11.0783 2.5228 11.1803 2.5534C11.2789 2.584 11.3787 2.61687 11.475 2.6554C11.5691 2.69053 11.662 2.72907 11.7538 2.771C11.8411 2.81067 11.9283 2.856 12.0133 2.9036C12.0961 2.9512 12.1743 2.99993 12.2513 3.05433C12.3273 3.10647 12.3998 3.16313 12.4689 3.22433C12.5369 3.28327 12.6038 3.34673 12.665 3.4136C12.7262 3.47933 12.7851 3.54847 12.8373 3.621C12.8917 3.69467 12.9415 3.76947 12.9857 3.84993C13.0333 3.9304 13.073 4.0154 13.1104 4.1004C13.1478 4.18993 13.1818 4.27947 13.209 4.3724C13.2373 4.46873 13.2611 4.56847 13.2804 4.66707C13.2997 4.7736 13.3133 4.88013 13.3223 4.98553C13.3314 5.09887 13.3337 5.2122 13.3359 5.3278C13.3359 5.3278 13.3779 6.65267 12.342 8.42293C12.0235 9.03493 11.6246 9.5676 11.4421 10.2272C11.2744 10.829 11.3594 11.5067 11.7515 12.0031C12.0961 12.4429 12.6321 12.7024 13.1897 12.7024C13.6646 12.7024 14.0964 12.5188 14.4228 12.2207C14.0023 13.2475 12.9993 13.9774 11.8229 13.9774H11.8241Z" fill="#140F0F"/>
</svg>
