<svg width="116" height="36" viewBox="0 0 116 36" fill="none" xmlns="http://www.w3.org/2000/svg">
<path fill-rule="evenodd" clip-rule="evenodd" d="M24.7553 0.371204C25.1858 0.415395 25.6603 0.521454 25.9679 0.592159C34.2625 2.53656 39.1215 9.06799 39.1215 17.208V35.998H32.8917V31.7733H35.9934V26.7621H32.883V17.3582V16.713C32.8566 11.1185 28.6654 6.46956 23.1561 5.56807C22.4956 5.44593 21.8242 5.39262 21.1528 5.40898H21.144C19.0352 5.45317 17.1109 6.19558 15.8368 7.69807V7.70691C17.0184 7.22983 18.2804 6.98674 19.5536 6.99102C22.1487 6.99144 24.6434 8.00035 26.5165 9.80704C28.3896 11.6137 29.4963 14.0785 29.6055 16.6865H26.4951V21.6889H29.6319V35.998H23.4109V17.1019C23.4103 16.5361 23.2855 15.9773 23.0456 15.4655C22.8056 14.9538 22.4563 14.5015 22.0227 14.1411L19.5624 17.1019L17.1021 14.1411C16.6697 14.5021 16.3218 14.9546 16.0833 15.4664C15.8449 15.9782 15.7217 16.5367 15.7226 17.1019V35.998H9.50167V26.7621H12.6121V21.7597H9.50167V16.8721C9.50167 16.5716 9.51045 16.2711 9.51924 15.9706C9.73891 10.65 11.8828 5.16151 16.6628 2.15652C17.5196 1.60072 18.4439 1.15812 19.413 0.839629C20.5189 0.430722 21.6879 0.221287 22.8662 0.220955C23.4986 0.225664 24.13 0.275875 24.7553 0.371204ZM18.218 0H20.0457C20.3795 0 20.0457 0.088382 19.7645 0.150249C12.9812 1.53785 6.21546 7.93671 6.21546 16.9075V35.998H0.00328896V16.9252C-0.00109632 16.8427 -0.00109632 16.7601 0.00328896 16.6777H3.10498V11.6753H0.794088C2.99075 4.75495 9.5456 0 18.218 0ZM61.5033 16.68V11.6758H46.5818V11.6775V16.68H51.5585V36.0003H56.5283H56.53V16.68H61.5033ZM64.1019 11.6758H69.0769V36.0003H64.1019V11.6758ZM81.5302 11.6758H76.5552V36.0003H81.5302V11.6758ZM89.4791 11.6758L84.2897 36.0003H89.3315L92.8655 16.6499L96.6033 36.0003H101.712L96.3924 11.6758H89.4791ZM75.3026 20.625H70.3276V25.6292H75.3026V20.625ZM116 11.6758V16.68H111.027V36.0003H111.025H106.054V16.68H101.077V11.6775H101.079V11.6758H116Z" fill="black"/>
</svg>
