<svg width="96" height="32" viewBox="0 0 96 32" fill="none" xmlns="http://www.w3.org/2000/svg">
<path d="M23.2887 0.517554C23.0173 0.454438 22.5856 0.366075 22.2032 0.315582C21.6481 0.239842 21.093 0.189349 20.5133 0.189349C19.3044 0.189349 18.4286 0.403945 17.4295 0.73215C16.7141 0.971992 15.9986 1.27495 14.9748 1.90612C10.4478 4.72111 8.52356 10.0103 8.52356 14.9838V31.9874H14.099V15.2237C14.099 14.1633 14.5678 13.2039 15.3202 12.5097L17.5652 15.1984L19.7855 12.5097C20.5256 13.2039 20.9944 14.1507 20.9944 15.211V31.9874H26.5575V15.4509C26.5575 5.54162 17.1458 5.44063 14.2594 6.69034C18.2806 1.98185 29.4809 4.88521 29.4809 15.4888V32H35.0564V15.2868C35.0564 8.05365 30.7021 2.24694 23.2887 0.517554ZM17.9476 0C18.2313 0 17.9476 0.0757397 17.7009 0.126233C11.6197 1.36331 5.56313 7.04379 5.56313 15.0217C5.56313 22.6588 5.56313 31.9874 5.56313 31.9874H0V15.0343C0 6.46312 6.7103 0 16.307 0H17.9476Z" fill="#33B2E5"/>
<path d="M95.0766 3.67349L89.8095 12.3709L95.0766 21.0684H88.613L86.7134 17.7232L84.8138 21.0684H78.3502L83.6173 12.3709L78.3502 3.67349H84.8138L86.7134 7.01866L88.613 3.67349H95.0766ZM52.9275 21.8384L62.4132 3.66087H56.1223L53.0632 9.83365L49.8807 3.66087H43.5898L52.9275 21.8384ZM70.3817 2.58789C75.6858 2.58789 79.9907 6.90505 79.9907 12.2321C79.9907 17.5591 75.6858 21.8889 70.3817 21.8889C65.0776 21.8889 60.7603 17.5717 60.7603 12.2321C60.7726 6.90505 65.0776 2.58789 70.3817 2.58789ZM70.3817 15.8928C72.3923 15.8928 74.0205 14.2518 74.0205 12.2321C74.0205 10.2124 72.3923 8.57133 70.3817 8.57133C68.3711 8.57133 66.7305 10.2124 66.7305 12.2321C66.7305 14.2518 68.3711 15.8928 70.3817 15.8928ZM87.7865 28.8822H88.4896V29.4124H87.7865V28.8822ZM86.8244 28.8822H87.5275V29.4124H86.8244V28.8822ZM83.3582 26.1303H82.6551V25.5875H83.3582V26.1303ZM95.0766 26.2692V27.1275C95.0766 27.6072 94.8052 28.049 94.3611 28.2384C94.2131 28.3015 94.0404 28.3394 93.8431 28.3394H93.1893V27.9354C93.0783 28.1879 92.9179 28.352 92.6096 28.3394H79.0163H79.0039C78.8682 28.3394 78.7449 28.3015 78.6215 28.251C78.4365 28.5035 78.1405 28.6676 77.7704 28.6676C77.4004 28.6676 77.1043 28.5035 76.9193 28.251C76.7713 28.3015 76.6233 28.3394 76.4752 28.3394H71.9853V25.335H72.6637V27.8092H76.3766C76.4629 27.8092 76.5492 27.8092 76.6233 27.784L76.7466 27.7587C76.7466 27.7335 76.7466 27.6956 76.7466 27.6956C76.7466 27.1654 77.1783 26.7236 77.7704 26.7236C78.3625 26.7236 78.7942 27.1528 78.7942 27.683C78.7942 27.683 78.7942 27.7335 78.7942 27.7587L78.9176 27.784C79.0039 27.7966 79.0779 27.8092 79.1643 27.8092H82.6675V26.6479H83.3459V27.8092H87.3301V26.6479H88.0086V27.8092H91.3884H91.5981C91.9435 27.8092 91.9681 27.5946 91.9681 27.178V26.5974H92.6219V27.8218H92.6712C93.0166 27.8218 93.1646 27.4684 93.2016 27.1654C93.2016 27.1023 93.214 26.5974 93.2016 26.5974H93.8554V27.8218C94.0281 27.8344 94.1884 27.7335 94.2748 27.5946C94.4845 27.2916 94.4228 26.9003 94.4228 26.5595V26.2818H95.0766V26.2692ZM78.1651 27.7082C78.1651 27.481 78.0048 27.2916 77.7704 27.2916C77.5361 27.2916 77.3757 27.481 77.3757 27.7082V27.7208C77.3757 27.9481 77.5361 28.1374 77.7704 28.1374C78.0171 28.1248 78.1651 27.9354 78.1651 27.7082ZM47.1547 27.1402C47.1547 26.4333 47.6974 25.8778 48.4252 25.8778C48.9186 25.8778 49.2393 26.0798 49.449 26.3828L48.9433 26.7741C48.8076 26.5974 48.6472 26.4964 48.4129 26.4964C48.0798 26.4964 47.8331 26.7867 47.8331 27.1402V27.1528C47.8331 27.5189 48.0675 27.7966 48.4129 27.7966C48.6596 27.7966 48.8199 27.683 48.9556 27.5062L49.4614 27.8597C49.2393 28.1753 48.9309 28.4025 48.3882 28.4025C47.7098 28.4025 47.1547 27.8723 47.1547 27.1402ZM67.0265 27.5441C67.2609 27.7335 67.5323 27.8344 67.816 27.8344C68.001 27.8344 68.0874 27.7713 68.0874 27.6703V27.6577C68.0874 27.5567 68.0134 27.5062 67.6803 27.4305C67.1622 27.3169 66.7675 27.1654 66.7675 26.6731C66.7675 26.2187 67.1252 25.9031 67.705 25.9031C68.112 25.9031 68.4327 26.0167 68.7041 26.2187L68.3711 26.6857C68.149 26.5343 67.9023 26.4459 67.6926 26.4459C67.5323 26.4459 67.4459 26.5216 67.4459 26.61C67.4459 26.7236 67.5323 26.7741 67.8653 26.8498C68.4204 26.9761 68.7658 27.1528 68.7658 27.6072C68.7658 28.0995 68.3711 28.4025 67.7913 28.4025C67.3596 28.4025 66.9525 28.2636 66.6565 27.9985L67.0265 27.5441ZM63.178 28.352H63.8811L64.0538 27.9228H64.9913L65.1639 28.352H65.8794L64.8556 25.9157H64.2141L63.178 28.352ZM64.2511 27.3926L64.5225 26.711L64.7939 27.3926H64.2511ZM59.6625 25.9283H60.3656L60.9453 26.8625L61.5251 25.9283H62.2282V28.3394H61.5621V26.9508L60.9453 27.8976H60.933L60.3162 26.9634V28.352H59.6625V25.9283ZM56.4307 25.9283H58.3796V26.4964H57.0968V26.8625H58.2563V27.3926H57.0968V27.7713H58.392V28.3394H56.4307V25.9283ZM52.7918 25.9283H53.4209L54.4201 27.2033V25.9283H55.0862V28.3394H54.4941L53.4579 27.0139V28.3394H52.7918V25.9283ZM50.7565 28.352H51.435V25.941H50.7565V28.352Z" fill="white"/>
</svg>
